<svg width="41" height="40" viewBox="0 0 41 40" fill="none" xmlns="http://www.w3.org/2000/svg">
<path d="M20.5 3.33337C11.315 3.33337 3.83331 10.815 3.83331 20C3.83331 29.185 11.315 36.6667 20.5 36.6667C29.685 36.6667 37.1666 29.185 37.1666 20C37.1666 10.815 29.685 3.33337 20.5 3.33337ZM20.5 6.66671C27.8835 6.66671 33.8333 12.6165 33.8333 20C33.8333 27.3836 27.8835 33.3334 20.5 33.3334C13.1164 33.3334 7.16665 27.3836 7.16665 20C7.16665 12.6165 13.1164 6.66671 20.5 6.66671Z" fill="#676B73"/>
<path d="M20.5 15C20.058 15 19.634 15.1756 19.3215 15.4882C19.0089 15.8007 18.8333 16.2246 18.8333 16.6667V28.3333C18.8333 28.7754 19.0089 29.1993 19.3215 29.5118C19.634 29.8244 20.058 30 20.5 30C20.942 30 21.3659 29.8244 21.6785 29.5118C21.9911 29.1993 22.1666 28.7754 22.1666 28.3333V16.6667C22.1666 16.2246 21.9911 15.8007 21.6785 15.4882C21.3659 15.1756 20.942 15 20.5 15Z" fill="#676B73"/>
<path d="M22.1666 11.6661C22.1666 12.1081 21.9911 12.532 21.6785 12.8445C21.3659 13.1571 20.942 13.3327 20.5 13.3327C20.058 13.3327 19.634 13.1571 19.3215 12.8445C19.0089 12.532 18.8333 12.1081 18.8333 11.6661C18.8333 11.224 19.0089 10.8001 19.3215 10.4875C19.634 10.175 20.058 9.99939 20.5 9.99939C20.942 9.99939 21.3659 10.175 21.6785 10.4875C21.9911 10.8001 22.1666 11.224 22.1666 11.6661Z" fill="#676B73"/>
</svg>
