<svg width="59" height="55" viewBox="0 0 59 55" fill="none" xmlns="http://www.w3.org/2000/svg">
<path d="M44.0196 38.6031H14.1162C13.8953 38.6177 13.6736 38.5897 13.4647 38.521C13.2559 38.4522 13.0646 38.3441 12.9025 38.2033C12.7405 38.0626 12.6113 37.8923 12.5229 37.703C12.4345 37.5137 12.389 37.3094 12.389 37.103C12.389 36.8965 12.4345 36.6923 12.5229 36.503C12.6113 36.3137 12.7405 36.1433 12.9025 36.0026C13.0646 35.8619 13.2559 35.7538 13.4647 35.685C13.6736 35.6162 13.8953 35.5882 14.1162 35.6028H17.7565V33.7766H14.1162C13.6334 33.7552 13.1509 33.8254 12.698 33.9829C12.245 34.1404 11.8311 34.382 11.4813 34.693C11.1314 35.0039 10.8529 35.3779 10.6627 35.7921C10.4724 36.2064 10.3743 36.6523 10.3743 37.103C10.3743 37.5536 10.4724 37.9995 10.6627 38.4138C10.8529 38.828 11.1314 39.202 11.4813 39.513C11.8311 39.824 12.245 40.0655 12.698 40.223C13.1509 40.3805 13.6334 40.4507 14.1162 40.4293H44.0196C44.231 40.4186 44.4425 40.4481 44.6413 40.5161C44.84 40.5842 45.0218 40.6893 45.1756 40.825C45.3293 40.9607 45.4517 41.1242 45.5354 41.3055C45.6191 41.4868 45.6622 41.6821 45.6622 41.8795C45.6622 42.0769 45.6191 42.2722 45.5354 42.4535C45.4517 42.6348 45.3293 42.7983 45.1756 42.934C45.0218 43.0697 44.84 43.1748 44.6413 43.2428C44.4425 43.3109 44.231 43.3404 44.0196 43.3297H40.4254V45.1558H44.0196C44.4918 45.1718 44.9627 45.0989 45.404 44.9414C45.8454 44.7839 46.2481 44.5451 46.5883 44.2393C46.9285 43.9335 47.199 43.5669 47.3838 43.1615C47.5686 42.756 47.6638 42.32 47.6638 41.8795C47.6638 41.4389 47.5686 41.0029 47.3838 40.5975C47.199 40.192 46.9285 39.8254 46.5883 39.5196C46.2481 39.2138 45.8454 38.9751 45.404 38.8176C44.9627 38.6601 44.4918 38.5872 44.0196 38.6031Z" fill="white"/>
<path d="M37.3014 43.3329H30.6362V45.1591H37.3014V43.3329Z" fill="white"/>
<path d="M18.7936 29.4336H22.0916C22.2068 28.759 22.438 28.1061 22.7761 27.5H18.7936C15.4114 27.5 12.6147 24.9863 12.5594 21.8958C12.5452 21.1388 12.6928 20.3867 12.9938 19.6835C13.2947 18.9802 13.7429 18.3399 14.3122 17.7999C14.8815 17.2599 15.5605 16.831 16.3096 16.5383C17.0586 16.2456 17.8627 16.0949 18.6749 16.095V15.1282L18.6864 16.095H18.6945C18.8977 16.0943 19.1003 16.0749 19.2994 16.037C20.0328 16.7653 20.4461 17.7237 20.4576 18.7226L22.8014 18.6613C22.7802 17.2417 22.227 15.8736 21.2377 14.7941C21.3813 14.5799 21.4926 14.3482 21.5684 14.1056C22.0522 12.5583 23.0614 11.1991 24.4444 10.232C25.8274 9.26493 27.5096 8.74214 29.2384 8.74214C30.9673 8.74214 32.6495 9.26493 34.0325 10.232C35.4155 11.1991 36.4246 12.5583 36.9084 14.1056C37.0873 14.6852 37.4649 15.1944 37.9835 15.5552C38.502 15.916 39.133 16.1086 39.7801 16.1036H39.8043C40.6165 16.1035 41.4205 16.2542 42.1696 16.5469C42.9186 16.8396 43.5976 17.2685 44.1669 17.8085C44.7362 18.3485 45.1844 18.9888 45.4854 19.6921C45.7863 20.3953 45.934 21.1474 45.9197 21.9044C45.9071 22.7 45.7106 23.4837 45.3436 24.2021C46.0189 24.3573 46.6648 24.608 47.2588 24.9455C47.7278 24.002 47.9798 22.9774 47.9986 21.9377C48.0171 20.9242 47.8189 19.9174 47.4157 18.976C47.0124 18.0346 46.4121 17.1775 45.6498 16.4547C44.8875 15.7319 43.9784 15.1578 42.9756 14.7659C41.9727 14.374 40.8962 14.1722 39.8089 14.1722H39.787C39.5893 14.175 39.3961 14.1174 39.2369 14.0082C39.0777 13.8989 38.9613 13.7441 38.9054 13.5674C38.2959 11.6182 37.0246 9.90599 35.2824 8.68771C33.5401 7.46943 31.421 6.81085 29.243 6.81085C27.0651 6.81085 24.9459 7.46943 23.2037 8.68771C21.4614 9.90599 20.1901 11.6182 19.5806 13.5674C19.5243 13.7449 19.407 13.9003 19.2466 14.0096C19.0863 14.1189 18.8919 14.176 18.6933 14.1722H18.6772C17.5905 14.172 16.5147 14.3735 15.5123 14.7648C14.51 15.1561 13.6012 15.7294 12.8388 16.4513C12.0765 17.1732 11.4759 18.0294 11.072 18.9698C10.6682 19.9103 10.4691 20.9162 10.4863 21.9291C10.5589 26.0681 14.2891 29.4336 18.7936 29.4336Z" fill="white"/>
<path d="M42.2254 24.605C41.7805 23.4371 40.9499 22.4307 39.8529 21.7305C38.7559 21.0304 37.449 20.6725 36.12 20.7083C34.7911 20.7441 33.5086 21.1718 32.4568 21.9298C31.405 22.6879 30.6381 23.7373 30.2664 24.9273C30.1833 25.1907 30.0103 25.4217 29.7737 25.5851C29.537 25.7486 29.2495 25.8355 28.955 25.8328H28.9435C28.2818 25.8329 27.6267 25.9558 27.0166 26.1944C26.4064 26.4329 25.8533 26.7824 25.3896 27.2224C24.9258 27.6624 24.5608 28.1841 24.3156 28.757C24.0705 29.33 23.9503 29.9427 23.9619 30.5594C24.008 33.1053 26.2931 35.1237 29.0253 35.1237H43.5782C46.3104 35.1237 48.5955 33.1053 48.6416 30.5594C48.6636 29.35 48.1787 28.1803 47.2899 27.299C46.4012 26.4178 45.1787 25.8944 43.8825 25.8403C43.4119 26.1646 43.0281 26.5859 42.7613 27.0714C42.4944 27.5568 42.3516 28.0932 42.3441 28.6387L40.2699 28.5839C40.2795 27.8301 40.4585 27.0866 40.7953 26.4013C41.1322 25.716 41.6193 25.104 42.2254 24.605Z" fill="white"/>
</svg>
