<svg width="42" height="38" viewBox="0 0 42 38" fill="none" xmlns="http://www.w3.org/2000/svg">
<path d="M32.6156 21.3156C31.0406 12.5875 19.3594 2.375 18.8344 1.95938C18.5719 1.72188 18.1781 1.72188 17.9156 1.95938C17.325 2.43437 3.9375 14.0719 3.9375 23.1562C3.9375 30.3406 10.4344 36.2188 18.375 36.2188C20.6063 36.2188 22.7719 35.7438 24.7406 34.8531C26.1187 35.6844 27.7594 36.2188 29.5312 36.2188C34.2563 36.2188 38.0625 32.775 38.0625 28.5C38.0625 25.2344 35.8313 22.4438 32.6156 21.3156ZM18.375 35.0312C11.1562 35.0312 5.25 29.6875 5.25 23.1562C5.25 15.4969 16.0125 5.34375 18.375 3.20625C20.5406 5.16563 29.5312 13.6562 31.2375 20.9594C30.6469 20.8406 30.1219 20.7812 29.5312 20.7812C24.8062 20.7812 21 24.225 21 28.5C21 30.6969 21.9844 32.6562 23.625 34.0219C21.9844 34.675 20.2125 35.0312 18.375 35.0312ZM29.5312 35.0312C25.5281 35.0312 22.3125 32.1219 22.3125 28.5C22.3125 24.8781 25.5281 21.9688 29.5312 21.9688C33.5344 21.9688 36.75 24.8781 36.75 28.5C36.75 32.1219 33.5344 35.0312 29.5312 35.0312Z" fill="white"/>
<path d="M18.375 32.0625C12.9281 32.0625 8.53125 28.0844 8.53125 23.1562C8.53125 22.8 8.26875 22.5625 7.875 22.5625C7.48125 22.5625 7.21875 22.8 7.21875 23.1562C7.21875 28.7375 12.2063 33.25 18.375 33.25C18.7688 33.25 19.0312 33.0125 19.0312 32.6562C19.0312 32.3 18.7688 32.0625 18.375 32.0625Z" fill="white"/>
<path d="M31.7625 23.8094C31.4344 23.6906 31.0406 23.8094 30.9094 24.1063L26.9719 32.4188C26.8406 32.7156 26.9719 33.0719 27.3 33.1906C27.3656 33.25 27.4969 33.25 27.5625 33.25C27.825 33.25 28.0875 33.1313 28.1531 32.8938L32.0906 24.5813C32.2219 24.2844 32.0906 23.9281 31.7625 23.8094Z" fill="white"/>
<path d="M28.875 26.125C28.875 25.1156 28.0219 24.3438 26.9062 24.3438C25.7906 24.3438 24.9375 25.1156 24.9375 26.125C24.9375 27.1344 25.7906 27.9062 26.9062 27.9062C28.0219 27.9062 28.875 27.1344 28.875 26.125ZM26.25 26.125C26.25 25.7687 26.5125 25.5312 26.9062 25.5312C27.3 25.5312 27.5625 25.7687 27.5625 26.125C27.5625 26.4813 27.3 26.7188 26.9062 26.7188C26.5125 26.7188 26.25 26.4813 26.25 26.125Z" fill="white"/>
<path d="M32.1562 29.0938C31.0406 29.0938 30.1875 29.8656 30.1875 30.875C30.1875 31.8844 31.0406 32.6562 32.1562 32.6562C33.2719 32.6562 34.125 31.8844 34.125 30.875C34.125 29.8656 33.2719 29.0938 32.1562 29.0938ZM32.1562 31.4688C31.7625 31.4688 31.5 31.2313 31.5 30.875C31.5 30.5187 31.7625 30.2812 32.1562 30.2812C32.55 30.2812 32.8125 30.5187 32.8125 30.875C32.8125 31.2313 32.55 31.4688 32.1562 31.4688Z" fill="white"/>
</svg>
