<svg width="40" height="41" viewBox="0 0 40 41" fill="none" xmlns="http://www.w3.org/2000/svg">
<path d="M25.5625 17.425L20.8125 25.6891C20.5625 25.6891 20.3125 25.625 20 25.625C18.25 25.625 16.875 27.0344 16.875 28.8281C16.875 30.6219 18.25 32.0312 20 32.0312C21.75 32.0312 23.125 30.6219 23.125 28.8281C23.125 27.8031 22.625 26.9062 21.9375 26.3297L26.5 18.3859C27.75 19.8594 28.5625 21.7172 28.6875 23.7672C28.6875 24.0875 29 24.3438 29.3125 24.3438H31.4375C31.75 24.3438 31.9375 24.1516 32.0625 23.8953C32.375 22.8062 32.5 21.6531 32.5 20.5C32.5 13.4531 26.875 7.6875 20 7.6875C13.125 7.6875 7.5 13.4531 7.5 20.5C7.5 21.6531 7.625 22.8062 7.9375 23.8953C8 24.1516 8.25 24.3438 8.5625 24.3438H10.625C10.9375 24.3438 11.25 24.0875 11.25 23.7672C11.5625 19.0266 15.375 15.375 20 15.375C22.125 15.375 24.0625 16.1438 25.5625 17.425ZM20 30.75C18.9375 30.75 18.125 29.9172 18.125 28.8281C18.125 27.7391 18.9375 26.9062 20 26.9062C21.0625 26.9062 21.875 27.7391 21.875 28.8281C21.875 29.9172 21.0625 30.75 20 30.75ZM16.125 14.9266L14.3125 10.6344C14.3125 10.6344 14.3125 10.5703 14.25 10.5703C15.75 9.67344 17.5 9.09687 19.3125 8.96875V14.0938C18.25 14.2219 17.125 14.4781 16.125 14.9266ZM20.625 14.0938V8.96875C22.5 9.09687 24.1875 9.60938 25.6875 10.5703C25.6875 10.5703 25.6875 10.6344 25.625 10.6344L23.8125 14.9266C22.875 14.4781 21.75 14.2219 20.625 14.0938ZM31 23.0625H29.9375C29.75 21.5891 29.25 20.2438 28.5625 19.0266L30.8125 17.2969C31.125 18.3219 31.25 19.3469 31.25 20.5C31.25 21.3969 31.125 22.2297 31 23.0625ZM30.375 16.0797C30.3125 16.0797 30.25 16.1438 30.25 16.1438L27.8125 18.0016C27.625 17.7453 27.375 17.4891 27.125 17.2328L28 15.6953C28.1875 15.375 28.0625 14.9906 27.75 14.7984C27.4375 14.6063 27.0625 14.7344 26.875 15.0547L26.125 16.3359C25.75 16.0156 25.3125 15.7594 24.9375 15.5031L26.6875 11.3391C28.375 12.5563 29.625 14.1578 30.375 16.0797ZM10.0625 23.0625H9C8.8125 22.2297 8.75 21.3969 8.75 20.5C8.75 19.4109 8.9375 18.3219 9.1875 17.2969L11.4375 19.0266C10.75 20.2438 10.25 21.5891 10.0625 23.0625ZM12.1875 18.0016L9.75 16.1438C9.6875 16.0797 9.6875 16.0797 9.625 16.0797C10.375 14.1578 11.6875 12.5563 13.25 11.275L15 15.4391C13.875 16.1438 12.9375 16.9766 12.1875 18.0016Z" fill="#E8E8E9"/>
<path d="M35 32.6719H31.0625C34.25 29.6609 36.25 25.3047 36.25 20.5C36.25 11.3391 28.9375 3.84375 20 3.84375C19.3125 3.84375 18.625 3.90781 17.9375 3.97187C17.4375 2.75469 16.3125 1.92188 15 1.92188H14.375C13 1.92188 11.875 3.075 11.875 4.48438C11.875 4.99688 12.0625 5.44531 12.375 5.76562C11.6875 6.15 11.0625 6.53438 10.4375 7.04688H2.5C2.125 7.04688 1.875 7.30312 1.875 7.6875C1.875 8.07188 2.125 8.32812 2.5 8.32812H8.9375C5.75 11.3391 3.75 15.6953 3.75 20.5C3.75 29.6609 11.0625 37.1562 20 37.1562C23.5625 37.1562 26.875 35.9391 29.5625 33.9531H35C36.0625 33.9531 36.875 34.7859 36.875 35.875C36.875 36.9641 36.0625 37.7969 35 37.7969H34.375C33.6875 37.7969 33.125 37.2203 33.125 36.5156C33.125 36.1312 33.375 35.875 33.75 35.875C34.125 35.875 34.375 35.6188 34.375 35.2344C34.375 34.85 34.125 34.5938 33.75 34.5938C32.6875 34.5938 31.875 35.4266 31.875 36.5156C31.875 37.925 33 39.0781 34.375 39.0781H35C36.75 39.0781 38.125 37.6688 38.125 35.875C38.125 34.0812 36.75 32.6719 35 32.6719ZM13.75 5.125C13.375 5.125 13.125 4.86875 13.125 4.48438C13.125 3.77969 13.6875 3.20312 14.375 3.20312H15C15.6875 3.20312 16.3125 3.5875 16.625 4.22812C15.625 4.42031 14.6875 4.74062 13.75 5.125ZM16.8125 5.44531C16.6875 6.34219 15.9375 7.04688 15 7.04688H12.75C14 6.34219 15.375 5.76562 16.8125 5.44531ZM20 35.875C11.75 35.875 5 28.9562 5 20.5C5 15.5672 7.3125 11.1469 10.875 8.32812H15C16.6875 8.32812 18.0625 6.98281 18.125 5.25312C18.75 5.18906 19.375 5.125 20 5.125C28.25 5.125 35 12.0437 35 20.5C35 25.4328 32.6875 29.8531 29.125 32.6719H17.5C17.125 32.6719 16.875 32.9281 16.875 33.3125C16.875 33.6969 17.125 33.9531 17.5 33.9531H27.25C25.125 35.1703 22.625 35.875 20 35.875Z" fill="#E8E8E9"/>
</svg>
