<svg width="47" height="43" viewBox="0 0 47 43" fill="none" xmlns="http://www.w3.org/2000/svg">
<path d="M22.0312 17.4688C26.0871 17.4688 29.375 14.4607 29.375 10.75C29.375 7.03934 26.0871 4.03125 22.0312 4.03125C17.9754 4.03125 14.6875 7.03934 14.6875 10.75" stroke="white" stroke-width="2" stroke-linecap="round"/>
<path d="M7.34375 17.4688H22.0312" stroke="white" stroke-width="2" stroke-linecap="round"/>
<path d="M8.8125 28.2188H29.375" stroke="white" stroke-width="2" stroke-linecap="round"/>
<path d="M24.9688 32.25C24.9688 34.4764 26.9415 36.2812 29.375 36.2812C31.8085 36.2812 33.7812 34.4764 33.7812 32.25C33.7812 30.0236 31.8085 28.2188 29.375 28.2188" stroke="white" stroke-width="2" stroke-linecap="round"/>
<path d="M35.25 22.8438C39.3058 22.8438 42.5937 19.8357 42.5937 16.125C42.5937 12.4143 39.3058 9.40625 35.25 9.40625C34.8148 9.40625 34.3884 9.44088 33.974 9.5073" stroke="white" stroke-width="2" stroke-linecap="round"/>
<path d="M4.40625 22.8438H35.25" stroke="white" stroke-width="2" stroke-linecap="round"/>
</svg>
